<svg id="Layer_1" data-name="Layer 1" xmlns="http://www.w3.org/2000/svg" viewBox="0 0 222.31 192.11"><defs><style>.cls-1{fill:#00a8e7;}.cls-2{fill:#025f5e;}</style></defs><title>PlayerProjectile</title><path class="cls-1" d="M117.4,184.3c28.88-8.93,21.66-9.34-41.21-24.74-60.27-14.77-55-16.1,17.27-17.86s29.85-34.24-27.22-31S10.63,81.12,69.75,74.39s-33.08-16.22-24-26,98.49-8.07,98.49-8.07a87.37,87.37,0,0,1,0,174.73s-133.43,6-114.3-13.59C54.91,175.89,98.56,190.12,117.4,184.3Z" transform="translate(-19.49 -33.1)"/><path class="cls-2" d="M117.1,183.35c2.63-.83,5.25-1.66,7.82-2.57,1.29-.46,2.57-.93,3.8-1.46a14.07,14.07,0,0,0,3.33-1.85,2.26,2.26,0,0,0,.44-.5c.07-.15,0-.16,0-.2s-.4-.54-.88-.83a18,18,0,0,0-3.51-1.62c-2.52-.92-5.16-1.66-7.81-2.34q-8-2-16.09-3.67c-5.39-1.15-10.8-2.21-16.22-3.26L71.74,162c-5.45-1-10.89-2-16.35-3.13-2.72-.56-5.45-1.13-8.2-1.75s-5.5-1.28-8.36-2.12a36.25,36.25,0,0,1-4.56-1.65c-.21-.09-.44-.21-.67-.33a8.1,8.1,0,0,1-.74-.4A9.37,9.37,0,0,1,32,152l-.48-.37a4.7,4.7,0,0,1-.59-.55,5,5,0,0,1-.65-.75,8,8,0,0,1-.72-1.16,7.66,7.66,0,0,1-.58-2,7,7,0,0,1,.17-2.52,7.72,7.72,0,0,1,.91-2,7.84,7.84,0,0,1,1.76-1.81c.23-.16.56-.39.71-.47a12,12,0,0,1,1.93-.93l.76-.28.69-.21c.89-.28,1.68-.47,2.47-.65,1.55-.36,3-.62,4.46-.85,5.76-.91,11.3-1.49,16.87-2s11.09-.93,16.62-1.32,11-.66,16.56-1c5.33-.24,10.57-.68,15.62-1.37,2.52-.34,5-.76,7.3-1.3a36.27,36.27,0,0,0,6.07-1.94,8.32,8.32,0,0,0,1.55-.88c.11-.08,0-.06-.09.13s-.1.13-.14.2a2.38,2.38,0,0,1-.14.27,4.82,4.82,0,0,0-.3.8,4.44,4.44,0,0,0-.12,1,3.78,3.78,0,0,0,.06.86,2.39,2.39,0,0,0,.27.8,3.78,3.78,0,0,0-.76-.85,15.6,15.6,0,0,0-2.14-1.62,29.12,29.12,0,0,0-2.8-1.62,58.2,58.2,0,0,0-6.52-2.86,104.05,104.05,0,0,0-14.59-4.1,135.17,135.17,0,0,0-15.37-2.26c-2.6-.25-5.21-.4-7.82-.49-1.31-.06-2.61-.07-3.92-.09H65a116.57,116.57,0,0,1-17.51-1.18,72.32,72.32,0,0,1-8.85-1.87,44.77,44.77,0,0,1-8.87-3.48,27.2,27.2,0,0,1-4.34-2.88,18,18,0,0,1-3.88-4.36,12.84,12.84,0,0,1-.72-12.6,21.66,21.66,0,0,1,6.87-7.84,43.2,43.2,0,0,1,8-4.56,84.18,84.18,0,0,1,16.55-5.23A146.08,146.08,0,0,1,69,71.24c2.73-.29,5.42-.58,8.09-1a56.86,56.86,0,0,0,7.67-1.54,15.37,15.37,0,0,0,1.6-.57,4.34,4.34,0,0,0,.57-.28l.11-.06s0,0,0,0,.08,0,0,0a.21.21,0,0,0-.07.11,2.32,2.32,0,0,0-.15.26,2,2,0,0,0-.14.85,3.53,3.53,0,0,0,0,.38c0,.12.12.26.11.28s.16.22.11.19a4,4,0,0,0-.82-.59,22.39,22.39,0,0,0-3.32-1.52c-1.22-.46-2.48-.9-3.76-1.31-5.12-1.67-10.45-3.09-15.79-4.61-2.67-.76-5.34-1.56-8-2.43A55,55,0,0,1,47,56.22a17.68,17.68,0,0,1-2.19-1.32,8.29,8.29,0,0,1-2.39-2.51,7.35,7.35,0,0,1-.52-1.2,6.35,6.35,0,0,1-.23-1.53,6.53,6.53,0,0,1,.27-1.56,7,7,0,0,1,.58-1.23,10.35,10.35,0,0,1,.69-.91c.2-.21.42-.42.64-.62a4.81,4.81,0,0,1,.63-.52,6.89,6.89,0,0,1,.61-.43,21.07,21.07,0,0,1,4.55-2.12c1.45-.51,2.88-.91,4.29-1.26a148,148,0,0,1,16.77-3C81.81,36.67,92.89,35.68,104,35s22.17-1.3,33.28-1.64c2.78-.08,5.55-.17,8.36-.2s5.92,0,8.91.21a92.83,92.83,0,0,1,50,19.28A96.23,96.23,0,0,1,162.93,223.5c-1.52.24-3,.54-4.57.72s-3.06.36-4.59.49l-4.6.28-4.4,0-4,.08-4.18,0-8.35,0a532.92,532.92,0,0,1-66.86-4c-5.59-.73-11.19-1.65-16.83-2.87A88,88,0,0,1,36,216.1a46.46,46.46,0,0,1-4.4-1.69,20,20,0,0,1-4.72-2.92l-.62-.56c-.21-.23-.43-.48-.63-.73a8.43,8.43,0,0,1-1.16-1.78,5.87,5.87,0,0,1-.43-1.14,5.71,5.71,0,0,1-.27-1.24c0-.42-.05-.86,0-1.28a6.2,6.2,0,0,1,.18-1.18,6.83,6.83,0,0,1,.73-2l.22-.44.24-.35.49-.69a9.58,9.58,0,0,1,1-1.14c.16-.16.35-.37.49-.49l.43-.37c1.15-1,2.26-2,3.5-2.83.61-.43,1.19-.89,1.82-1.3l1.89-1.2a56.58,56.58,0,0,1,16.18-6.62c11.23-2.68,22.53-2.62,33.58-2.16,5.53.25,11,.56,16.52.72S112,184.79,117.1,183.35Zm.59,1.91c-5.53,1.66-11.18,1.67-16.71,1.74s-11.06-.14-16.55-.06a140.68,140.68,0,0,0-16.34.93,74.33,74.33,0,0,0-15.67,3.46,50.76,50.76,0,0,0-7.19,3.14c-1.17.57-2.24,1.3-3.35,1.95-.54.35-1.06.73-1.58,1.09a15.8,15.8,0,0,0-1.54,1.15l-1.48,1.2c-.49.41-.93.87-1.4,1.3a37.52,37.52,0,0,0-2.63,2.72l-.32.34a2.61,2.61,0,0,0-.2.27c-.09.16-.29.35-.3.47a.89.89,0,0,1-.08.17l0,.08v0s0,0,0,0,.06,0,.06-.09a1.17,1.17,0,0,0,.06-.41c0-.08,0-.16,0-.23s-.09-.17,0-.19-.08-.14,0-.1,0,0,.06,0l.19.1a13.76,13.76,0,0,0,2.5,1,32.07,32.07,0,0,0,3.47.84,76.47,76.47,0,0,0,7.66,1c5.26.47,10.65.63,16.05.7,10.82.15,21.73-.26,32.65-.65,5.45-.22,10.92-.43,16.38-.72s10.92-.52,16.39-.8l16.52-.9,3.87-.16,3.65-.34c1.21-.14,2.41-.35,3.62-.51s2.39-.46,3.58-.68a78.25,78.25,0,0,0,26.69-11.12,78.29,78.29,0,0,0,35.16-75A77.24,77.24,0,0,0,212,89.25a79.08,79.08,0,0,0-18.65-22.8,82.23,82.23,0,0,0-25.83-14.67,76.71,76.71,0,0,0-14.63-3.54c-2.5-.35-5-.64-7.6-.77s-5.44-.31-8.17-.45c-11-.5-21.93-.92-32.89-1.1-5.48-.07-11-.1-16.42,0s-10.92.23-16.34.59a134.64,134.64,0,0,0-15.94,1.8c-1.28.25-2.52.54-3.69.89a14.72,14.72,0,0,0-3,1.19,2,2,0,0,0-.23.14c-.06,0-.18.1-.19.13l-.11.08a.09.09,0,0,0,0-.09.76.76,0,0,0,.13-.31,1.17,1.17,0,0,0,.07-.54,1.06,1.06,0,0,0-.07-.51.66.66,0,0,0-.11-.25,2.17,2.17,0,0,0,.47.43,9.45,9.45,0,0,0,1.32.86,50.24,50.24,0,0,0,7.08,3.05c2.53.91,5.13,1.72,7.74,2.53,5.23,1.63,10.55,3.11,15.91,4.87,1.34.44,2.68.91,4,1.44a31.47,31.47,0,0,1,4.18,2,8.79,8.79,0,0,1,2.43,1.92,5.06,5.06,0,0,1,.68,1,3.36,3.36,0,0,1,.29.77,4.14,4.14,0,0,1,.15.89,4.26,4.26,0,0,1-.34,1.84,5.19,5.19,0,0,1-.39.72c-.13.18-.26.35-.4.51a4.58,4.58,0,0,1-.79.73l-.37.29-.34.2a9.28,9.28,0,0,1-1.27.67,22.25,22.25,0,0,1-2.28.84A76.25,76.25,0,0,1,78,76.43c-2.78.47-5.57.85-8.31,1.21a122.64,122.64,0,0,0-15.8,3.13,71.89,71.89,0,0,0-14.64,5.64,34.69,34.69,0,0,0-6.09,4.11,12.29,12.29,0,0,0-3.63,4.73A3.17,3.17,0,0,0,29.35,97a3,3,0,0,0,.72,1.39,11.72,11.72,0,0,0,4.53,3,44.75,44.75,0,0,0,14.2,2.73,104,104,0,0,0,15.54-.43l4.17-.39c1.45-.1,2.9-.21,4.35-.27,2.9-.14,5.81-.21,8.72-.17a134,134,0,0,1,17.49,1.39,103.14,103.14,0,0,1,17.44,4,67.5,67.5,0,0,1,8.74,3.5,47.31,47.31,0,0,1,4.4,2.43,32.73,32.73,0,0,1,4.5,3.3,21.52,21.52,0,0,1,4.55,5.44,15.79,15.79,0,0,1,1.71,4.66,14.41,14.41,0,0,1,.24,2.91,13.74,13.74,0,0,1-.42,3,13.39,13.39,0,0,1-1,2.73,9.92,9.92,0,0,1-.65,1.17c-.23.36-.47.76-.71,1.07a18,18,0,0,1-3,3.09,24.9,24.9,0,0,1-5.52,3.36,46.49,46.49,0,0,1-9.67,3c-3.07.65-6.06,1.09-9,1.42s-5.87.52-8.76.65-5.78.18-8.62.2l-16.51-.11L60.37,150c-5.45,0-10.93,0-16.14.19-1.3.06-2.57.14-3.74.26-.57,0-1.13.12-1.57.19l-.54.09c-.11,0-.15,0,0-.1,0,0,.19-.12.27-.2s.11-.1.41-.36a3.87,3.87,0,0,0,.6-.75,4.33,4.33,0,0,0,.69-1.51,4.91,4.91,0,0,0,.14-2,4.41,4.41,0,0,0-.45-1.5,3.59,3.59,0,0,0-.43-.73,3.89,3.89,0,0,0-.31-.35,1.62,1.62,0,0,0-.23-.19.18.18,0,0,0-.07,0c-.1-.05,0,0,0,0s.09.08.15.13l.24.17a25.54,25.54,0,0,0,3.06,1.53c2.34,1,4.87,2,7.41,2.88s5.14,1.79,7.74,2.65c5.21,1.72,10.46,3.38,15.72,5s10.56,3.22,15.86,4.76c10.58,3.15,21.23,6,31.85,9.25,2.64.85,5.3,1.67,7.93,2.71a20.7,20.7,0,0,1,3.93,2,5.45,5.45,0,0,1,1,.82,2.86,2.86,0,0,1,.79,1.4,2.46,2.46,0,0,1-.32,1.78,4.35,4.35,0,0,1-.93,1,17.16,17.16,0,0,1-3.89,2.12c-1.31.55-2.62,1-3.93,1.49C123,183.63,120.34,184.45,117.69,185.26Z" transform="translate(-19.49 -33.1)"/></svg>