<svg id="Layer_1" data-name="Layer 1" xmlns="http://www.w3.org/2000/svg" xmlns:xlink="http://www.w3.org/1999/xlink" viewBox="0 0 208.06 73.57"><defs><style>.cls-1{fill:url(#linear-gradient);}.cls-2{fill:#774b98;}</style><linearGradient id="linear-gradient" x1="5" y1="36.79" x2="208.06" y2="36.79" gradientUnits="userSpaceOnUse"><stop offset="0" stop-color="#2581c4"/><stop offset="1" stop-color="#e5231e"/></linearGradient></defs><title>SpeedyEnemy</title><polygon class="cls-1" points="208.06 36.79 5 5.78 5 67.8 208.06 36.79"/><path class="cls-2" d="M219.73,128q-13.39-1.94-26.59-3.71c-8.84-1.17-17.54-2.31-26.25-3.39L141,117.78l-25.51-2.94-25.14-3c-8.35-1-16.59-2.08-24.86-3.14L40.7,105.43l-24.77-3.57L21.6,97l.07,31-.08,31-5.66-4.87c8.27-1.2,16.52-2.42,24.77-3.56l24.78-3.31c16.5-2.22,33.16-4.12,50-6.1L141,138.22l25.9-3.12c8.71-1.08,17.41-2.21,26.25-3.39S210.8,129.29,219.73,128Zm0,0q-12,1.94-24.17,4c-8.09,1.41-16.31,2.86-24.52,4.36L146.17,141l-25.25,4.81c-17,3.19-34.18,6.46-51.53,9.41l-26,4.44c-8.67,1.44-17.34,2.8-26,4.18l-5.65.91,0-5.77-.08-31,.07-31,0-5.78,5.66.91,26,4.18,26,4.44c8.64,1.52,17.33,3,25.9,4.61l25.63,4.8L146.18,115l24.87,4.63c8.21,1.51,16.43,3,24.51,4.37S211.75,126.71,219.73,128Z" transform="translate(-11.67 -91.21)"/></svg>