<svg id="Layer_1" data-name="Layer 1" xmlns="http://www.w3.org/2000/svg" xmlns:xlink="http://www.w3.org/1999/xlink" viewBox="0 0 910 951.05"><defs><style>.cls-1{fill:none;}.cls-2{clip-path:url(#clip-path);}.cls-3,.cls-5{fill:#fff;}.cls-4{fill:#ca861b;}.cls-5{font-size:140px;font-family:UbuntuMono-Regular, Ubuntu Mono;}</style><clipPath id="clip-path" transform="translate(-57 -35.25)"><rect class="cls-1" x="127.96" width="768.07" height="768.07"/></clipPath></defs><title>whilefalse</title><g class="cls-2"><g class="cls-2"><path class="cls-3" d="M800.78,35.25H223.22a60.18,60.18,0,0,0-60,60V672.81a60.18,60.18,0,0,0,60,60H800.78a60.18,60.18,0,0,0,60-60V95.26a60.18,60.18,0,0,0-60-60M512,702.82c-176.06,0-318.78-142.73-318.78-318.78S335.94,65.26,512,65.26,830.78,208,830.78,384,688.06,702.82,512,702.82" transform="translate(-57 -35.25)"/><path class="cls-4" d="M253.23,95.26a30,30,0,1,1-30-30,30,30,0,0,1,30,30" transform="translate(-57 -35.25)"/><path class="cls-4" d="M830.78,95.26a30,30,0,1,1-30-30,30,30,0,0,1,30,30" transform="translate(-57 -35.25)"/><path class="cls-4" d="M253.23,672.81a30,30,0,1,1-30-30,30,30,0,0,1,30,30" transform="translate(-57 -35.25)"/><path class="cls-4" d="M830.78,672.81a30,30,0,1,1-30-30,30,30,0,0,1,30,30" transform="translate(-57 -35.25)"/></g><g class="cls-2"><path class="cls-4" d="M594.79,337.53S654.3,179.77,618.3,126.76s-102.19-17.5-106,7c-4,25.86,36,143,34.5,201s48,2.75,48,2.75" transform="translate(-57 -35.25)"/><path class="cls-4" d="M536.37,289.24S466.89,135.61,404,123.58s-84.63,59.89-70,79.92c15.44,21.13,126.59,75.66,166.54,117.74s35.89-32,35.89-32" transform="translate(-57 -35.25)"/><path class="cls-4" d="M460.91,296.4s-157.76-59.5-210.77-23.5-17.5,102.19,7,106c25.86,4,143-36,201-34.5s2.75-48,2.75-48" transform="translate(-57 -35.25)"/><path class="cls-4" d="M412.62,354.83S259,424.31,247,487.25s59.89,84.63,79.91,70C348,541.82,402.54,430.67,444.62,390.72s-32-35.89-32-35.89" transform="translate(-57 -35.25)"/><path class="cls-4" d="M419.78,430.29s-59.5,157.76-23.5,210.77,102.19,17.5,106-7c4-25.87-36-143-34.5-201s-48-2.75-48-2.75" transform="translate(-57 -35.25)"/><path class="cls-4" d="M478.21,478.58s69.48,153.63,132.42,165.65,84.63-59.88,70-79.91C665.2,543.18,554.05,488.66,514.1,446.58s-35.89,32-35.89,32" transform="translate(-57 -35.25)"/><path class="cls-4" d="M553.67,471.41s157.76,59.51,210.77,23.51,17.5-102.19-7-106c-25.87-4-143,36-201,34.5s-2.75,48-2.75,48" transform="translate(-57 -35.25)"/><path class="cls-4" d="M602,413s153.63-69.48,165.65-132.42-59.88-84.63-79.91-70C666.56,226,612,337.15,570,377.1S602,413,602,413" transform="translate(-57 -35.25)"/><path class="cls-4" d="M594.79,337.53S654.3,179.77,618.3,126.76s-102.19-17.5-106,7c-4,25.86,36,143,34.5,201s48,2.75,48,2.75" transform="translate(-57 -35.25)"/><path class="cls-3" d="M587,384a75,75,0,1,1-75-75,75,75,0,0,1,75,75" transform="translate(-57 -35.25)"/></g></g><text class="cls-5" transform="translate(0 927.25)">while (<tspan class="cls-4" x="490" y="0">false</tspan><tspan x="840" y="0">)</tspan></text></svg>